<svg width="137" height="150" viewBox="0 0 137 150" fill="none" xmlns="http://www.w3.org/2000/svg">
<g clip-path="url(#clip0_4471_3480)">
<path d="M53.4166 123.989C65.2221 112.184 65.2221 93.043 53.4166 81.2374C41.611 69.4319 22.4704 69.4319 10.6649 81.2374C-1.14065 93.043 -1.14065 112.184 10.6649 123.989C22.4704 135.795 41.611 135.795 53.4166 123.989Z" fill="#D8EEE7"/>
<path d="M2.625 56.1719L12.2313 68.1797L24.2391 58.5734" stroke="#7E3A74" stroke-width="3" stroke-linecap="round" stroke-linejoin="round"/>
<path d="M12.2344 68.1795C12.2344 37.6723 36.9634 12.9434 67.4705 12.9434C92.992 12.9434 113.967 30.2515 120.305 53.7701" stroke="#7E3A74" stroke-width="3" stroke-linecap="round" stroke-linejoin="round"/>
<path d="M110.695 86.6172L122.703 74.6094L132.309 86.6172" stroke="#7E3A74" stroke-width="3" stroke-linecap="round" stroke-linejoin="round"/>
<path d="M123.071 74.6094C123.071 105.117 98.3417 129.846 67.8346 129.846C43.1896 129.846 22.1135 113.707 15 91.4204" stroke="#7E3A74" stroke-width="3" stroke-linecap="round" stroke-linejoin="round"/>
<path fill-rule="evenodd" clip-rule="evenodd" d="M67.7431 30.0002C66.6922 30.016 65.853 30.8807 65.8677 31.9315V38.9683C65.853 39.6582 66.2124 40.3025 66.8078 40.6516C67.4033 41.0006 68.1404 41.0011 68.7358 40.6516C69.3313 40.302 69.6906 39.6582 69.676 38.9683V31.9315C69.6836 31.4169 69.4822 30.9214 69.118 30.5571C68.7537 30.1935 68.2582 29.9921 67.7436 30.0002H67.7431ZM39.4432 41.7583C38.9286 41.7431 38.4298 41.9369 38.0607 42.2952C37.6916 42.6539 37.4831 43.1463 37.4831 43.6608C37.4831 44.1754 37.6916 44.6683 38.0607 45.0265L43.0365 50.0023C43.5125 50.5061 44.2247 50.7118 44.8961 50.5386C45.5676 50.3655 46.0914 49.8411 46.2645 49.1702C46.4377 48.4993 46.2325 47.7866 45.7282 47.3106L40.7524 42.3348C40.4077 41.9798 39.9382 41.773 39.4432 41.7578V41.7583ZM96.0999 41.7583C95.6054 41.773 95.1359 41.9803 94.7912 42.3353L89.8154 47.3112C89.3117 47.7872 89.106 48.4993 89.2791 49.1708C89.4523 49.8422 89.9766 50.366 90.6475 50.5392C91.319 50.7123 92.0311 50.5071 92.5071 50.0029L97.483 45.0271C97.8521 44.6683 98.0605 44.176 98.0605 43.6614C98.0605 43.1468 97.8521 42.6539 97.483 42.2957C97.1139 41.9375 96.615 41.7437 96.0999 41.7589V41.7583ZM27.6569 70.1429C26.967 70.1277 26.3227 70.4875 25.9731 71.0825C25.6235 71.6779 25.6235 72.4156 25.9731 73.0105C26.3227 73.6059 26.967 73.9653 27.6569 73.9501H34.6937C35.2083 73.9571 35.7039 73.7557 36.0675 73.3921C36.4312 73.0278 36.632 72.5323 36.6244 72.0177C36.6087 70.9668 35.7446 70.1277 34.6937 70.1423H27.6569V70.1429ZM100.85 70.1429C100.16 70.1277 99.5158 70.4875 99.1662 71.0825C98.8166 71.6779 98.8166 72.4156 99.1662 73.0105C99.5158 73.6059 100.16 73.9653 100.85 73.9501H107.887C108.401 73.9577 108.897 73.7563 109.261 73.3921C109.625 73.0278 109.826 72.5323 109.818 72.0177C109.802 70.9668 108.938 70.1277 107.887 70.1423H100.85V70.1429ZM44.3441 93.5147C43.8496 93.5293 43.3806 93.7361 43.036 94.0906L38.0601 99.0664C37.5564 99.5424 37.3507 100.255 37.5239 100.926C37.697 101.597 38.2214 102.121 38.8922 102.294C39.5637 102.468 40.2758 102.262 40.7519 101.758L45.7277 96.7823C46.0968 96.4235 46.3052 95.9312 46.3052 95.4166C46.3052 94.9021 46.0968 94.4092 45.7277 94.051C45.3581 93.6927 44.8598 93.4995 44.3436 93.5147H44.3441ZM91.1995 93.5147C90.685 93.4995 90.1867 93.6927 89.817 94.051C89.4479 94.4097 89.2395 94.9021 89.2395 95.4166C89.2395 95.9312 89.4479 96.4241 89.817 96.7823L94.7929 101.758C95.2689 102.262 95.9811 102.468 96.6525 102.294C97.3239 102.121 97.8477 101.597 98.0209 100.926C98.194 100.255 97.9889 99.5424 97.4846 99.0664L92.5088 94.0906C92.1641 93.7361 91.6951 93.5293 91.1995 93.5147ZM67.7431 103.194C66.6922 103.21 65.853 104.074 65.8677 105.125V112.162C65.853 112.852 66.2124 113.496 66.8078 113.845C67.4033 114.194 68.1404 114.195 68.7358 113.845C69.3313 113.496 69.6906 112.852 69.676 112.162V105.125C69.683 104.611 69.4816 104.115 69.118 103.751C68.7537 103.388 68.2582 103.187 67.7436 103.194H67.7431Z" fill="#7E3A74"/>
<path d="M67.7583 30.0215C44.5716 30.0215 25.7344 48.8587 25.7344 72.0454C25.7344 95.2322 44.5716 114.069 67.7583 114.069C90.945 114.069 109.782 95.2322 109.782 72.0454C109.782 48.8587 90.945 30.0215 67.7583 30.0215ZM67.7583 33.8401C88.8813 33.8401 105.964 50.923 105.964 72.046C105.964 93.169 88.8813 110.252 67.7583 110.252C46.6354 110.252 29.5524 93.169 29.5524 72.046C29.5524 50.923 46.6354 33.8401 67.7583 33.8401Z" fill="#7E3A74"/>
<path fill-rule="evenodd" clip-rule="evenodd" d="M60.9809 69C59.2899 69 57.9002 69.3589 56.8115 70.0758C55.7426 70.7927 54.7612 71.8577 53.8672 73.2707L56.6366 74.9608C57.7444 73.1582 59.1345 72.2568 60.806 72.2568C61.7584 72.2568 62.5454 72.5638 63.1675 73.1785C63.7897 73.7725 64.1001 74.5002 64.1001 75.3604C64.1001 76.2206 63.8091 77.0704 63.226 77.9103C62.6429 78.7502 61.661 79.9078 60.2813 81.3827L54.101 87.9276V91H68.0366V87.528H58.7947L63.5758 82.3966C65.0334 80.8195 66.0348 79.5286 66.5789 78.5251C67.1231 77.5211 67.395 76.467 67.395 75.3604C67.395 73.3941 66.7538 71.8473 65.4711 70.7208C64.1884 69.5736 62.6918 69 60.9813 69H60.9809ZM76.1546 69.5221L68.6621 82.3962V85.592H77.4079V90.9996H80.6734V85.592H83.1224V82.3044H80.6734V78.3714H77.4079V82.3044H72.5393L79.9154 69.5225H76.1546V69.5221Z" fill="#7E3A74"/>
<path d="M71.8 60.8V65H66.2V60.8H62V55.2H66.2V51H71.8V55.2H76V60.8H71.8Z" fill="#D8EEE7" stroke="#3DA988" stroke-width="1.03038" stroke-linecap="round" stroke-linejoin="round"/>
</g>
<defs>
<clipPath id="clip0_4471_3480">
<rect width="136.364" height="150" fill="white"/>
</clipPath>
</defs>
</svg>
