<svg width="139" height="150" viewBox="0 0 139 150" fill="none" xmlns="http://www.w3.org/2000/svg">
<path opacity="0.2" d="M103.23 137.46C119.926 137.46 133.46 123.926 133.46 107.23C133.46 90.5344 119.926 77 103.23 77C86.5344 77 73 90.5344 73 107.23C73 123.926 86.5344 137.46 103.23 137.46Z" fill="#3DA988"/>
<path d="M49.7374 119.59L45.3111 81.7064C45.0952 79.8366 43.2977 78.5668 41.4462 78.9633C35.8107 80.1795 24.9986 82.3279 20.8746 83.6565C12.1353 86.4746 6.24078 94.5807 6.28936 103.699L6.40812 125.891" stroke="#7E3A74" stroke-width="3" stroke-linecap="round" stroke-linejoin="round"/>
<path d="M61.875 119.591L66.3013 81.6964C66.5172 79.8319 68.304 78.5568 70.1554 78.9533C75.8719 80.1695 86.9485 82.3232 91.0887 83.6626C99.828 86.4807 105.723 94.5868 105.674 103.705L105.555 125.897" stroke="#7E3A74" stroke-width="3" stroke-linecap="round" stroke-linejoin="round"/>
<path d="M22.0937 83.4805L21.0411 85.6396C19.0654 89.6953 18.5257 94.2975 19.5135 98.6961" stroke="#7E3A74" stroke-width="3" stroke-linecap="round" stroke-linejoin="round"/>
<path d="M17.8516 112.18L19.9082 111.221" stroke="#7E3A74" stroke-width="3" stroke-linecap="round" stroke-linejoin="round"/>
<path d="M29.2891 106.838L31.3457 105.879" stroke="#7E3A74" stroke-width="3" stroke-linecap="round" stroke-linejoin="round"/>
<path d="M31.3447 105.88C31.2691 104.985 31.0262 104.085 30.6213 103.228C28.7536 99.2899 24.0304 97.6022 20.063 99.4506C16.0955 101.304 14.3897 105.998 16.2574 109.935C16.6622 110.793 17.2074 111.548 17.8552 112.18" stroke="#7E3A74" stroke-width="3" stroke-linecap="round" stroke-linejoin="round"/>
<path d="M89.8438 83.6738L90.2538 84.6703C92.3968 89.8994 92.4885 95.7338 90.5075 101.027" stroke="#7E3A74" stroke-width="3" stroke-linecap="round" stroke-linejoin="round"/>
<path d="M94.3326 108.447C93.4852 111.597 90.2194 113.467 87.0508 112.62C83.8768 111.779 81.9929 108.538 82.8458 105.393C83.6933 102.243 86.959 100.373 90.1276 101.219C93.3016 102.06 95.1855 105.302 94.3326 108.447Z" stroke="#7E3A74" stroke-width="3" stroke-linecap="round" stroke-linejoin="round"/>
<path d="M34.5938 56.0547C38.6582 66.5395 46.5826 73.6651 55.6943 73.6651C64.8061 73.6651 72.7192 66.5502 76.7893 56.0547" stroke="#7E3A74" stroke-width="3" stroke-linecap="round" stroke-linejoin="round"/>
<path d="M34.5927 56.0532C32.2176 56.7604 29.3999 54.3977 28.3041 50.7706C27.2083 47.1435 28.2447 43.6343 30.6198 42.9271L34.3444 41.4912L34.7006 38.191C35.3052 32.6244 38.4306 27.6311 43.197 24.6309C52.0982 28.7776 62.1654 29.7527 71.7036 27.3847L71.7953 27.3632C70.8561 32.5119 72.7346 37.7731 76.7291 41.1859L77.0691 41.4752L80.7667 42.9324C83.1418 43.6396 84.1782 47.1542 83.0824 50.776C81.9867 54.4031 79.1689 56.7658 76.7938 56.0586" stroke="#7E3A74" stroke-width="3" stroke-linecap="round" stroke-linejoin="round"/>
<path d="M27.6094 46.7477C26.6 43.3778 25.2289 37.0826 26.8483 29.6944C27.1074 28.5104 31.4635 10.032 47.463 6.08347C56.008 3.97793 65.8322 6.51208 71.8941 12.9037C73.6161 14.7199 74.7443 16.5415 75.4568 17.8863C75.5863 17.9452 75.8185 18.0899 76.1261 18.3042C81.265 21.8723 84.1367 28.0229 83.7426 34.3984C83.5375 37.7362 82.9437 42.9384 82.9437 45.0172" stroke="#7E3A74" stroke-width="3" stroke-linecap="round" stroke-linejoin="round"/>
<path d="M92 35.3979C96.1792 33.8341 100.209 31.8872 104.037 29.5806L105.124 28.9277L106.893 29.9481C113.038 33.4862 119.671 36.1094 126.584 37.7319L127.399 37.9234V56.3214C127.399 65.3445 123.295 73.9962 116 79.3795C113.593 81.1544 110.915 82.554 108.067 83.0857" stroke="#7E3A74" stroke-width="3" stroke-linecap="round" stroke-linejoin="round"/>
<path d="M110.25 57.25V63.3571H102.107V57.25H96V49.1071H102.107V43H110.25V49.1071H116.357V57.25H110.25Z" fill="#D8EEE7" stroke="#3DA988" stroke-width="1.49826" stroke-linecap="round" stroke-linejoin="round"/>
</svg>
