<svg width="137" height="150" viewBox="0 0 137 150" fill="none" xmlns="http://www.w3.org/2000/svg">
<path d="M36.2306 90.4495C52.9265 90.4495 66.4612 76.9148 66.4612 60.2189C66.4612 43.523 52.9265 29.9883 36.2306 29.9883C19.5347 29.9883 6 43.523 6 60.2189C6 76.9148 19.5347 90.4495 36.2306 90.4495Z" fill="#D8EEE7"/>
<path d="M71.9 43.9V49H65.1V43.9H60V37.1H65.1V32H71.9V37.1H77V43.9H71.9Z" fill="#D8EEE7" stroke="#3DA988" stroke-width="1.49826" stroke-linecap="round" stroke-linejoin="round"/>
<path d="M21.5442 72.2884C21.6398 73.2203 20.9548 74.0555 20.0149 74.1503C19.075 74.245 18.2327 73.5679 18.1371 72.6339L15.7037 49.818C15.5942 48.7933 15.1043 47.889 14.3835 47.2671C13.7004 46.6767 12.7984 46.3411 11.8167 46.4082C10.8189 46.4754 9.93882 46.9433 9.32555 47.6403C8.71422 48.3352 8.36964 49.2632 8.43739 50.2563V50.3175L10.6676 87.1515C10.6717 87.2108 10.6717 87.27 10.6676 87.3293C10.6876 88.5258 10.8967 89.6314 11.297 90.66C11.7052 91.7085 12.3205 92.6897 13.1528 93.6157L29.374 111.701C29.6628 112.021 29.8042 112.422 29.8083 112.819L29.9974 116.209C30.0491 117.144 29.3243 117.946 28.3804 117.997C27.4366 118.049 26.6281 117.332 26.5763 116.394L26.415 113.519L10.59 95.8744C9.49073 94.6503 8.66436 93.3235 8.10279 91.8803C7.55726 90.4744 7.2724 88.9739 7.24661 87.3668L5.02026 50.5229L5.01625 50.4814C4.88488 48.5622 5.55788 46.7617 6.74877 45.4052C7.93955 44.0528 9.64605 43.1465 11.5856 43.0163C13.5113 42.8859 15.2855 43.5454 16.6337 44.7122C17.9857 45.8811 18.9037 47.5653 19.1068 49.4705L21.5402 72.2865L21.5442 72.2884Z" fill="#7E3A74"/>
<path d="M34.8507 92.5636C35.5968 93.145 35.7286 94.2201 35.1461 94.9647C34.5635 95.7092 33.4862 95.8407 32.7401 95.2593L16.5691 82.6247C15.0649 81.448 14.261 79.8652 14.0535 78.157C13.84 76.4129 14.2729 74.5493 15.2225 72.9047C15.2824 72.8012 15.3502 72.7076 15.428 72.622C16.629 71.1408 18.3167 70.2668 20.0822 70.0516C21.8737 69.8347 23.7549 70.2985 25.2911 71.4991L47.429 88.7966C48.6279 89.7324 49.6094 90.7856 50.3874 91.9763C51.1695 93.1728 51.74 94.4889 52.113 95.9502L56.9468 114.862C57.1802 115.78 56.6237 116.714 55.7039 116.947C54.7843 117.18 53.8487 116.624 53.6152 115.707L48.7815 96.794C48.4963 95.6834 48.0773 94.7039 47.5127 93.8378C46.9441 92.9677 46.216 92.1913 45.3203 91.4904L23.1824 74.1929C22.3963 73.5797 21.4228 73.3428 20.4852 73.4562C19.5954 73.5637 18.7475 73.9918 18.1391 74.7146C17.5945 75.6961 17.3472 76.7692 17.4668 77.7508C17.5686 78.587 17.9575 79.3595 18.6798 79.9249L34.8507 92.5595V92.5636Z" fill="#7E3A74"/>
<path d="M58.5814 138.393L24.6412 139.543L24.4226 118.407L58.3628 117.258L58.5814 138.393ZM22.984 142L60.3481 140.929C61.2735 140.909 62.0135 139.772 61.9998 138.393L61.7168 116.457C61.7011 115.079 60.9396 113.977 60.0141 114L22.6502 115.071C21.7246 115.091 20.9846 116.228 21.0002 117.606L21.2834 139.543C21.2971 140.92 22.0605 142.022 22.986 142H22.984Z" fill="#7E3A74"/>
<path d="M119.864 72.6313C119.767 73.5631 118.927 74.2423 117.987 74.1475C117.047 74.0528 116.362 73.2177 116.458 72.2858L118.891 49.4703C119.094 47.5651 120.012 45.881 121.364 44.7123C122.714 43.5455 124.486 42.886 126.414 43.0163C128.354 43.1486 130.062 44.0528 131.25 45.4052C132.441 46.7596 133.116 48.5602 132.983 50.4812L132.979 50.5227L130.75 87.3677C130.725 88.9748 130.442 90.4752 129.894 91.881C129.334 93.3242 128.507 94.6509 127.41 95.8751L111.585 113.52L111.424 116.394C111.372 117.33 110.563 118.049 109.62 117.997C108.675 117.946 107.951 117.145 108.003 116.209L108.192 112.819C108.196 112.42 108.337 112.021 108.626 111.701L124.847 93.6164C125.677 92.6905 126.295 91.7072 126.703 90.6608C127.103 89.6323 127.31 88.5266 127.332 87.3302C127.33 87.2709 127.33 87.2117 127.332 87.1524L129.558 50.3194V50.2582C129.629 49.265 129.283 48.3371 128.672 47.6422C128.059 46.9452 127.179 46.4773 126.181 46.4102C125.199 46.3431 124.297 46.6767 123.614 47.269C122.894 47.8928 122.403 48.7952 122.294 49.8199L119.861 72.6352L119.864 72.6313Z" fill="#7E3A74"/>
<path d="M105.257 95.2554C104.511 95.8367 103.436 95.7053 102.851 94.9607C102.269 94.2161 102.402 93.1409 103.146 92.5595L119.317 79.9249C120.041 79.3595 120.428 78.587 120.53 77.7508C120.649 76.7692 120.402 75.6961 119.858 74.7146C119.249 73.9918 118.401 73.5638 117.512 73.4563C116.576 73.3428 115.602 73.5797 114.817 74.1929L92.6794 91.4904C91.7837 92.1913 91.0576 92.9677 90.4871 93.8378C89.9205 94.7039 89.5016 95.6834 89.2184 96.794L84.3848 115.707C84.1513 116.624 83.2157 117.18 82.2961 116.947C81.3745 116.714 80.8199 115.78 81.0533 114.862L85.8869 95.9502C86.2599 94.4889 86.8305 93.1708 87.6124 91.9763C88.3925 90.7856 89.3719 89.7344 90.5708 88.7966L112.708 71.4991C114.244 70.2985 116.125 69.8347 117.916 70.0516C119.682 70.2668 121.369 71.1387 122.57 72.622C122.646 72.7076 122.714 72.8012 122.776 72.9047C123.728 74.5493 124.159 76.4129 123.947 78.157C123.739 79.8632 122.936 81.448 121.429 82.6247L105.259 95.2593L105.257 95.2554Z" fill="#7E3A74"/>
<path d="M78.4186 138.393L112.358 139.543L112.578 118.407L78.6373 117.258L78.4186 138.393ZM114.015 142L76.652 140.929C75.7265 140.909 74.9865 139.772 75.0002 138.393L75.2834 116.457C75.299 115.079 76.0605 113.977 76.9859 114L114.349 115.071C115.275 115.091 116.014 116.228 116 117.606L115.716 139.543C115.702 140.92 114.939 142.022 114.013 142H114.015Z" fill="#7E3A74"/>
<path d="M71.1605 22.5353C70.7953 22.923 70.43 23.3162 69.9788 23.7847L68.7381 25.0824L67.4489 23.8277C67.0676 23.4562 66.6809 23.0739 66.3049 22.7023C62.3193 18.7712 59.3168 15.8095 53.1344 15.7287C52.8927 15.7234 52.6349 15.7287 52.3664 15.7395C48.9073 15.8634 45.7167 17.1396 43.3855 19.3205C41.0866 21.4745 39.6203 24.5277 39.5719 28.2433C39.5665 28.4749 39.5719 28.7173 39.5827 28.9812C39.9532 39.358 49.858 48.4101 58.0707 55.9113C59.6552 57.3598 61.1753 58.7492 62.6309 60.1547L68.679 65.9973L76.2794 58.4369C77.504 57.2199 78.8898 55.8898 80.3722 54.4682C82.8915 52.0449 85.6952 49.3578 88.3057 46.6492C90.1802 44.7052 91.9581 42.7505 93.4675 40.8712C94.95 39.0295 96.1639 37.2794 96.9427 35.7177C98.2211 33.1545 98.6239 30.5912 98.35 28.195C98.0814 25.8309 97.1521 23.6231 95.761 21.7384C94.3484 19.8267 92.4684 18.2435 90.3145 17.1611C87.8331 15.9226 84.9916 15.3356 82.0857 15.6695C77.0743 16.2511 74.4047 19.0889 71.1605 22.5353ZM68.6413 19.9936C72.3475 16.0572 75.4253 12.8316 81.6775 12.1154C85.287 11.7008 88.8213 12.4224 91.8991 13.9732C94.5578 15.3087 96.8782 17.2581 98.6186 19.6113C100.375 21.9914 101.551 24.7863 101.895 27.7911C102.244 30.8389 101.739 34.0861 100.122 37.317C99.2095 39.1426 97.8559 41.1027 96.2391 43.1112C94.6545 45.0822 92.8069 47.1177 90.8678 49.1262C88.2089 51.8887 85.3837 54.6028 82.8377 57.0476C81.3499 58.4746 79.9587 59.8101 78.7878 60.9732L69.9465 69.7668L68.7059 71L67.4489 69.7884L60.144 62.7341C58.8065 61.447 57.2596 60.0308 55.6535 58.5608C46.9467 50.5964 36.4351 40.995 36.0107 29.105C36 28.8142 36 28.5126 36 28.2003C36.0644 23.4293 37.9659 19.4874 40.947 16.698C43.9011 13.9355 47.9135 12.3201 52.2321 12.1639C52.5275 12.1531 52.839 12.1477 53.1666 12.1531C60.708 12.2554 64.1563 15.5672 68.6413 19.9936Z" fill="#7E3A74"/>
</svg>
